<svg xmlns="http://www.w3.org/2000/svg" width="167" height="227" fill="none" viewBox="0 0 167 227">
  <mask id="a" width="163" height="223" x="4" y="4" maskUnits="userSpaceOnUse" style="mask-type:luminance">
    <path fill="#fff" d="M4 4h163v223H4V4Z"/>
  </mask>
  <g mask="url(#a)">
    <path fill="#000" fill-opacity=".498" d="M24.099 4.802h123.599c10.641 0 19.203 8.573 19.203 19.219v183.76c0 10.646-8.562 19.219-19.203 19.219H24.099c-10.636 0-19.198-8.573-19.198-19.219V24.021c0-10.646 8.563-19.219 19.198-19.219Z"/>
  </g>
  <path fill="#fff" d="M19.302 0h123.599c10.635 0 19.198 8.573 19.198 19.219v183.76c0 10.646-8.563 19.219-19.198 19.219H19.302C8.662 222.198.1 213.625.1 202.979V19.219C.099 8.573 8.661 0 19.302 0Z"/>
  <path fill="#C7891F" d="M21.698 2.401h123.604c10.635 0 19.198 8.573 19.198 19.219v183.76c0 10.646-8.563 19.219-19.198 19.219H21.698c-10.636 0-19.198-8.573-19.198-19.219V21.62C2.5 10.974 11.063 2.4 21.698 2.4Z"/>
  <mask id="b" width="164" height="224" x="0" y="0" maskUnits="userSpaceOnUse" style="mask-type:luminance">
    <path fill="#fff" d="M0 0h164v224H0V0Z"/>
  </mask>
  <g mask="url(#b)">
    <mask id="c" width="163" height="223" x="1" y="1" maskUnits="userSpaceOnUse" style="mask-type:luminance">
      <path fill="#fff" d="M20.5 1.203h123.599a19.164 19.164 0 0 1 19.203 19.214v183.765a19.164 19.164 0 0 1-19.203 19.214H20.5c-10.635 0-19.198-8.568-19.198-19.214V20.417C1.302 9.77 9.865 1.203 20.5 1.203Z"/>
    </mask>
    <g mask="url(#c)">
      <path fill="url(#d)" d="M1.302 1.203v222.193h162V1.203h-162Z"/>
    </g>
  </g>
  <path fill="#9F0000" fill-rule="evenodd" d="M123.135 24.02a4.797 4.797 0 0 0-1.724.34c-1.114.437-2.083 1.333-2.437 2.624a3.474 3.474 0 0 0 .224 2.407c.375.74 1.12 1.343 2.104 1.349.568.005 1.016-.235 1.385-.641.183-.198.375-.495.375-.86 0-.364-.25-.703-.562-.9l-.635.974c.083.057 0-.006 0-.073 0-.073.02-.026-.042.036-.115.125-.542.26-.521.26-.51 0-.786-.26-1.016-.713-.224-.448-.27-1.083-.151-1.537.245-.9.865-1.479 1.688-1.802.828-.323 1.864-.359 2.703-.036 2.536.969 3.391 4.12 2.323 6.531-.932 2.12-3.094 3.396-5.401 3.49l-75.333.448v1.203l75.072-.448v.073c.094 0 .167-.073.261-.073h.417v-.115c2.593-.234 5.026-1.635 6.109-4.093 1.323-2.99.172-6.901-3.073-8.141-.568-.219-1.167-.302-1.766-.302Zm13.688 3.642a6.39 6.39 0 0 0-2.359.526c-2.454 1.083-3.855 3.52-4.089 6.12h-.115v.41c0 .094-.073.167-.073.261h.073l.302 82.99h1.198l-.296-83.25c.093-2.308 1.369-4.469 3.484-5.407 2.411-1.062 5.557-.213 6.526 2.329.323.838.286 1.875-.037 2.703-.322.828-.901 1.442-1.802 1.687a2.32 2.32 0 0 1-1.536-.15c-.453-.225-.708-.506-.714-1.011 0 .02.136-.412.266-.526.063-.058.104-.037.036-.037-.067 0-.13-.088-.072 0l.974-.64c-.204-.313-.537-.563-.902-.563-.364 0-.661.193-.864.375-.401.37-.641.818-.636 1.39.006.98.61 1.73 1.349 2.1a3.402 3.402 0 0 0 2.401.224c1.292-.35 2.188-1.323 2.625-2.438a4.78 4.78 0 0 0 .339-1.724c0-.599-.083-1.198-.302-1.765-.927-2.438-3.354-3.688-5.776-3.604ZM34.036 106.895l.303 83.245c-.094 2.307-1.37 4.468-3.49 5.406-2.412 1.068-5.557.213-6.526-2.328-.318-.839-.287-1.875.042-2.703.323-.823.895-1.443 1.797-1.688.453-.12 1.088-.078 1.536.151.453.229.708.505.713 1.016 0-.021-.135.406-.26.521-.063.062-.11.041-.036.041.067 0 .125.084.073 0l-.974.636c.198.312.536.562.9.562.36 0 .662-.192.86-.375.401-.364.64-.818.64-1.385-.01-.985-.609-1.729-1.354-2.104a3.385 3.385 0 0 0-2.395-.224c-1.292.349-2.193 1.323-2.625 2.437a4.686 4.686 0 0 0-.339 1.729 4.874 4.874 0 0 0 .297 1.761c1.24 3.25 5.151 4.401 8.14 3.078 2.454-1.083 3.855-3.516 4.09-6.115h.108v-.416c.006-.094.079-.167.079-.261h-.079l-.296-82.984h-1.204Zm85.651 80.844-75.072.453v-.078c-.094 0-.172.073-.266.078h-.411v.109c-2.594.234-5.032 1.635-6.115 4.094-1.318 2.989-.172 6.901 3.078 8.146a4.886 4.886 0 0 0 1.76.297c.6 0 1.167-.12 1.724-.339 1.12-.437 2.089-1.333 2.438-2.625.213-.776.151-1.661-.224-2.401-.37-.745-1.115-1.344-2.099-1.354-.573-.005-1.02.234-1.385.64-.188.198-.38.5-.375.86 0 .364.25.703.562.901l.636-.974c-.084-.052 0 .005 0 .073 0 .073-.021.031.036-.037.12-.125.547-.26.526-.26.505.005.786.26 1.01.713a2.32 2.32 0 0 1 .151 1.537c-.244.901-.859 1.479-1.687 1.802-.823.323-1.86.359-2.698.036-2.542-.968-3.39-4.114-2.328-6.531.937-2.114 3.099-3.396 5.401-3.489l75.338-.448v-1.203Z" clip-rule="evenodd"/>
  <path fill="red" d="M28.995 42.969h-12l-1.896 6.562H7.385L18.406 13.5h9.151l11.026 36.031H30.87l-1.875-6.562ZM18.906 36.28h8.157l-4.068-14.333-4.089 14.333Zm116.328 145.199h12l1.891-6.562h7.719l-11.026 36.031h-9.151l-11.026-36.031h7.718l1.875 6.562Zm10.084 6.688h-8.151l4.067 14.333 4.084-14.333Z"/>
  <path fill="red" fill-rule="evenodd" d="M23.39 57.25c-4.947 9.901-8.562 15.01-16.005 20.463 7.047 5.391 12.016 10.959 16.151 19.964 3.693-8.552 8.214-14.932 16.068-20.23-7.9-4.025-12.474-10.395-16.213-20.197Zm117.516 69.271c-4.948 9.901-8.557 15.01-16.005 20.463 7.047 5.391 12.016 10.959 16.151 19.964 3.693-8.552 8.214-14.932 16.068-20.229-7.896-4.021-12.469-10.396-16.214-20.198ZM82.031 69.724C71.401 91 63.646 101.979 47.656 113.698c15.136 11.583 25.802 23.547 34.688 42.896 7.932-18.38 17.64-32.078 34.505-43.469-16.964-8.646-26.781-22.333-34.818-43.401Z" clip-rule="evenodd"/>
  <defs>
    <linearGradient id="d" x1="-30.837" x2="185.934" y1="53.665" y2="186.447" gradientUnits="userSpaceOnUse">
      <stop stop-color="#EBF0D0"/>
      <stop offset=".125" stop-color="#EBF0D0"/>
      <stop offset=".156" stop-color="#EBF0D0"/>
      <stop offset=".172" stop-color="#ECF0D1"/>
      <stop offset=".188" stop-color="#ECF1D1"/>
      <stop offset=".203" stop-color="#EDF1D2"/>
      <stop offset=".219" stop-color="#EDF2D3"/>
      <stop offset=".234" stop-color="#EEF2D4"/>
      <stop offset=".25" stop-color="#EEF2D4"/>
      <stop offset=".266" stop-color="#EFF3D5"/>
      <stop offset=".281" stop-color="#EFF3D6"/>
      <stop offset=".297" stop-color="#F0F4D6"/>
      <stop offset=".313" stop-color="#F0F4D7"/>
      <stop offset=".328" stop-color="#F1F4D8"/>
      <stop offset=".344" stop-color="#F1F5D9"/>
      <stop offset=".359" stop-color="#F2F5D9"/>
      <stop offset=".375" stop-color="#F2F6DA"/>
      <stop offset=".391" stop-color="#F3F6DB"/>
      <stop offset=".406" stop-color="#F3F6DB"/>
      <stop offset=".422" stop-color="#F4F7DC"/>
      <stop offset=".438" stop-color="#F4F7DD"/>
      <stop offset=".453" stop-color="#F5F8DE"/>
      <stop offset=".457" stop-color="#F6F8DE"/>
      <stop offset=".469" stop-color="#F6F8DF"/>
      <stop offset=".484" stop-color="#F6F8DF"/>
      <stop offset=".5" stop-color="#F7F9E0"/>
      <stop offset=".516" stop-color="#F7F9E0"/>
      <stop offset=".531" stop-color="#F8F9E1"/>
      <stop offset=".543" stop-color="#F8FAE2"/>
      <stop offset=".547" stop-color="#F8FAE2"/>
      <stop offset=".563" stop-color="#F9FAE3"/>
      <stop offset=".578" stop-color="#F9FBE3"/>
      <stop offset=".594" stop-color="#FAFBE4"/>
      <stop offset=".609" stop-color="#FAFBE5"/>
      <stop offset=".625" stop-color="#FBFCE5"/>
      <stop offset=".641" stop-color="#FBFCE6"/>
      <stop offset=".656" stop-color="#FCFDE7"/>
      <stop offset=".672" stop-color="#FCFDE8"/>
      <stop offset=".688" stop-color="#FDFDE8"/>
      <stop offset=".703" stop-color="#FDFEE9"/>
      <stop offset=".719" stop-color="#FEFEEA"/>
      <stop offset=".734" stop-color="#FFFFEA"/>
      <stop offset=".75" stop-color="#FFFFEB"/>
      <stop offset="1" stop-color="#FFFFEB"/>
    </linearGradient>
  </defs>
</svg>
